<svg width="24" height="24" viewBox="0 0 24 24" fill="none" xmlns="http://www.w3.org/2000/svg">
<g clip-path="url(#clip0_30_8)">
<path d="M20.317 1.98948C18.7873 1.06863 17.147 0.390164 15.4319 0.00163924C15.4007 -0.00588723 15.3695 0.0128728 15.3534 0.050334C15.1424 0.542633 14.9087 1.18483 14.7451 1.68956C12.9004 1.32727 11.0652 1.32727 9.25832 1.68956C9.09464 1.1736 8.85246 0.542633 8.64056 0.050334C8.62446 0.0141272 8.59326 -0.00463282 8.56206 0.00163924C6.84789 0.388967 5.20756 1.06738 3.67692 1.98948C3.66366 1.99695 3.65231 2.00944 3.64476 2.02569C0.533402 8.12412 -0.318947 14.0727 0.0991773 19.9475C0.101054 19.9763 0.113358 20.0037 0.130377 20.0212C2.18321 21.9991 4.17172 23.1997 6.12326 23.9956C6.15451 24.0081 6.18758 23.9932 6.20748 23.9595C6.66911 23.1323 7.08065 22.2601 7.43345 21.3431C7.4543 21.2893 7.43441 21.2256 7.39186 21.2044C6.73911 20.8796 6.11759 20.4835 5.51973 20.0337C5.47243 19.9975 5.46863 19.9088 5.51214 19.8663C5.63798 19.7425 5.76383 19.6139 5.88396 19.484C5.90569 19.4603 5.93598 19.4552 5.9615 19.4703C9.88926 21.8229 14.1415 21.8229 18.0229 19.4703C18.0485 19.454 18.0788 19.4589 18.1015 19.4827C18.2216 19.6127 18.3475 19.7425 18.4742 19.8663C18.5177 19.9088 18.5149 19.9975 18.4676 20.0337C17.8697 20.4923 17.2482 20.8796 16.5945 21.2032C16.552 21.2244 16.533 21.2893 16.5538 21.3431C16.9142 22.2589 17.3258 23.1311 17.7789 23.9581C17.7978 23.9932 17.8319 24.0081 17.8631 23.9956C19.8241 23.1997 21.8126 21.9991 23.8654 20.0212C23.8834 20.0037 23.8948 19.9775 23.8967 19.9488C24.3971 13.1568 23.0585 7.25704 20.3482 2.02695C20.3416 2.00944 20.3303 1.99695 20.317 1.98948ZM8.02001 16.3703C6.8375 16.3703 5.8631 14.946 5.8631 13.1968C5.8631 11.4476 6.81861 10.0233 8.02001 10.0233C9.23087 10.0233 10.1958 11.4601 10.1769 13.1968C10.1769 14.946 9.2214 16.3703 8.02001 16.3703ZM15.9947 16.3703C14.8123 16.3703 13.8379 14.946 13.8379 13.1968C13.8379 11.4476 14.7933 10.0233 15.9947 10.0233C17.2056 10.0233 18.1705 11.4601 18.1516 13.1968C18.1516 14.946 17.2056 16.3703 15.9947 16.3703Z" fill="#FA7717"/>
</g>
<defs>
<clipPath id="clip0_30_8">
<rect width="24" height="24" fill="white"/>
</clipPath>
</defs>
</svg>
