<svg width="24" height="18" viewBox="0 0 24 18" fill="none" xmlns="http://www.w3.org/2000/svg">
<path d="M20.317 1.49211C18.7873 0.801473 17.147 0.292623 15.4319 0.00122943C15.4007 -0.00441542 15.3695 0.00965459 15.3534 0.0377505C15.1424 0.406975 14.9087 0.888625 14.7451 1.26717C12.9004 0.99545 11.0652 0.99545 9.25832 1.26717C9.09464 0.880201 8.85246 0.406975 8.64056 0.0377505C8.62446 0.0105954 8.59326 -0.00347461 8.56206 0.00122943C6.84789 0.291725 5.20756 0.800532 3.67692 1.49211C3.66366 1.49771 3.65231 1.50708 3.64476 1.51927C0.533402 6.09309 -0.318947 10.5545 0.0991771 14.9606C0.101054 14.9822 0.113358 15.0028 0.130377 15.0159C2.18321 16.4993 4.17172 17.3998 6.12326 17.9967C6.15451 18.0061 6.18758 17.9949 6.20748 17.9696C6.66911 17.3492 7.08065 16.6951 7.43345 16.0073C7.4543 15.967 7.43441 15.9192 7.39186 15.9033C6.73911 15.6597 6.11759 15.3626 5.51973 15.0253C5.47243 14.9981 5.46863 14.9316 5.51214 14.8997C5.63798 14.8069 5.76383 14.7104 5.88396 14.613C5.90569 14.5952 5.93598 14.5914 5.9615 14.6027C9.88926 16.3672 14.1415 16.3672 18.0229 14.6027C18.0485 14.5905 18.0788 14.5942 18.1015 14.612C18.2216 14.7095 18.3475 14.8069 18.4742 14.8997C18.5177 14.9316 18.5149 14.9981 18.4676 15.0253C17.8697 15.3692 17.2482 15.6597 16.5945 15.9024C16.552 15.9183 16.533 15.967 16.5538 16.0073C16.9142 16.6942 17.3258 17.3483 17.7789 17.9686C17.7978 17.9949 17.8319 18.0061 17.8631 17.9967C19.8241 17.3998 21.8126 16.4993 23.8654 15.0159C23.8834 15.0028 23.8948 14.9831 23.8967 14.9616C24.3971 9.86761 23.0585 5.44278 20.3482 1.52021C20.3416 1.50708 20.3303 1.49771 20.317 1.49211ZM8.02001 12.2777C6.8375 12.2777 5.8631 11.2095 5.8631 9.89763C5.8631 8.58572 6.81861 7.51747 8.02001 7.51747C9.23087 7.51747 10.1958 8.59508 10.1769 9.89763C10.1769 11.2095 9.2214 12.2777 8.02001 12.2777ZM15.9947 12.2777C14.8123 12.2777 13.8379 11.2095 13.8379 9.89763C13.8379 8.58572 14.7933 7.51747 15.9947 7.51747C17.2056 7.51747 18.1705 8.59508 18.1516 9.89763C18.1516 11.2095 17.2056 12.2777 15.9947 12.2777Z" fill="#FA7717"/>
</svg>
