<svg width="25" height="24" viewBox="0 0 25 24" fill="none" xmlns="http://www.w3.org/2000/svg">
<rect x="1.74023" y="0.75" width="22.5" height="22.5" rx="6" stroke="#fa7517" stroke-width="1.5" stroke-linecap="round" stroke-linejoin="round"/>
<path fill-rule="evenodd" clip-rule="evenodd" d="M12.9902 17C15.7517 17 17.9902 14.7614 17.9902 12C17.9902 9.23858 15.7517 7 12.9902 7C10.2288 7 7.99023 9.23858 7.99023 12C7.99023 14.7614 10.2288 17 12.9902 17Z" stroke="#fa7517" stroke-width="1.5" stroke-linecap="round" stroke-linejoin="round"/>
<path d="M20.3398 5.15039C20.3398 5.42653 20.116 5.65039 19.8398 5.65039C19.5637 5.65039 19.3398 5.42653 19.3398 5.15039" stroke="#fa7517" stroke-width="1.5" stroke-linecap="round" stroke-linejoin="round"/>
<path d="M19.3398 5.15039C19.3398 4.87425 19.5637 4.65039 19.8398 4.65039C20.116 4.65039 20.3398 4.87425 20.3398 5.15039" stroke="#fa7517" stroke-width="1.5" stroke-linecap="round" stroke-linejoin="round"/>
</svg>
