<svg width="24" height="24" viewBox="0 0 24 24" fill="none" xmlns="http://www.w3.org/2000/svg">
<path fill-rule="evenodd" clip-rule="evenodd" d="M23.1801 6.70957L21.0801 5.80957L22.1801 3.40957L19.6201 4.25957C18.8047 3.4995 17.7347 3.07151 16.6201 3.05957C14.1371 3.06507 12.1256 5.07657 12.1201 7.55957V8.55957C8.58008 9.28957 5.49008 7.35957 2.62008 4.05957C2.12008 6.72624 2.62008 8.72624 4.12008 10.0596L0.830078 9.55957C1.0924 11.7455 2.88223 13.4301 5.08008 13.5596L2.33008 14.5596C3.33008 16.5596 5.15008 16.8696 7.58008 17.0596C5.5939 18.4143 3.23365 19.1136 0.830078 19.0596C13.5901 24.7296 21.0801 16.3996 21.0801 9.05957V8.22957L23.1801 6.70957Z" stroke="#fa7517" stroke-width="1.5" stroke-linecap="round" stroke-linejoin="round"/>
</svg>
